<?xml version="1.0" encoding="utf-8"?>
<!-- Generator: Adobe Illustrator 19.1.0, SVG Export Plug-In . SVG Version: 6.00 Build 0)  -->
<svg version="1.1" id="Layer_1" xmlns="http://www.w3.org/2000/svg" xmlns:xlink="http://www.w3.org/1999/xlink" x="0px" y="0px"
	 viewBox="-273 379.8 251.7 43.2" style="enable-background:new -273 379.8 251.7 43.2;" xml:space="preserve">
<path d="M-33.6,390.2v32.4h-11.7v-32.4h-12.3v-0.4l-7.5,9.2l16.6,23.5h-12.2l-11.2-17l-3.8,4.3v12.7h-10.4h-1.3h-11l-2.6-8.3h-11.3
	l-2.5,8.3h-12.4l15.9-42.6h9.5l14.5,39v-39h11.7v17.4l14.2-17.4h4h8h28.3v10.2H-33.6z M-106.7,392.2l-4,14.3h7.7L-106.7,392.2z
	 M-123.8,405c-1.2,1.4-2.7,2.5-4.4,3.3c-1.7,0.8-3.7,1.2-5.7,1.2h-7v13.1h-11.7V380h18.4c2.1,0,4,0.4,5.8,1.3c1.8,0.9,3.3,2,4.5,3.4
	c1.3,1.4,2.2,3,3,4.7c0.7,1.8,1.1,3.6,1.1,5.4c0,1.9-0.3,3.7-1,5.5C-121.6,402.1-122.6,403.6-123.8,405z M-132.9,391.2
	c-0.7-0.6-1.4-1-2.2-1h-5.9v9.1h6.2c0.7,0,1.4-0.3,2-1c0.6-0.7,0.9-1.9,0.9-3.6C-131.8,393-132.2,391.8-132.9,391.2z M-167.2,400.2
	l-7.1,15.8h-6.2l-7.1-15.8v22.4h-11.7V380h12.8l9.2,20l9.2-20h12.7v42.6h-11.7V400.2z M-205.7,416.4c-1.8,2-4,3.6-6.5,4.8
	s-5.3,1.8-8.3,1.8c-3,0-5.8-0.6-8.3-1.9c-2.5-1.2-4.6-2.9-6.4-4.9c-1.8-2-3.2-4.3-4.1-6.9c-1-2.6-1.5-5.3-1.5-8
	c0-2.8,0.5-5.5,1.5-8.1c1-2.6,2.4-4.9,4.3-6.9c1.8-2,4-3.6,6.5-4.7c2.5-1.2,5.2-1.8,8.2-1.8c3,0,5.8,0.6,8.3,1.9
	c2.5,1.2,4.6,2.9,6.4,4.9s3.1,4.4,4.1,7c1,2.6,1.4,5.3,1.4,8c0,2.8-0.5,5.5-1.5,8.1C-202.5,412.2-203.9,414.4-205.7,416.4z
	 M-212.3,397.1c-0.4-1.3-0.9-2.5-1.6-3.5c-0.7-1-1.6-1.8-2.7-2.5c-1.1-0.6-2.3-0.9-3.8-0.9c-1.5,0-2.8,0.3-3.8,1
	c-1.1,0.6-1.9,1.5-2.6,2.5c-0.7,1.1-1.2,2.3-1.6,3.6c-0.3,1.3-0.5,2.7-0.5,4.1c0,1.4,0.2,2.8,0.5,4.2c0.3,1.3,0.9,2.5,1.6,3.6
	c0.7,1,1.6,1.9,2.7,2.5c1.1,0.6,2.3,1,3.8,1c1.5,0,2.8-0.3,3.8-1c1.1-0.7,2-1.5,2.6-2.6c0.7-1.1,1.2-2.3,1.5-3.6
	c0.3-1.4,0.5-2.7,0.5-4.1C-211.8,399.8-212,398.4-212.3,397.1z M-234.1,422.6h-12.2l-11.2-17l-3.8,4.3v12.7H-273V380h11.7v17.4
	l14.2-17.4h12l-15.5,19.1L-234.1,422.6z"/>
</svg>
